<?xml version="1.0" encoding="UTF-8"?><svg id="img1_Image" xmlns="http://www.w3.org/2000/svg" viewBox="0 0 1981.21 2247.23"><defs><style>.cls-1{fill:#42c0ef;}.cls-1,.cls-2{stroke-width:0px;}.cls-2{fill:#574ff2;}</style></defs><path class="cls-1" d="M1244.43,1430.96L341.32,904.79c-85.34-49.72-85.01-173.14.6-222.4l598.58-344.44c29.15-16.77,65.03-16.7,94.11.19l910.5,528.93c16.02,9.31,36.11-2.25,36.11-20.78v-216.95c0-42.54-22.8-81.82-59.74-102.91L1038.06,21.88c-36.07-20.6-80.3-20.75-116.5-.39L64.61,503.28C24.7,525.72,0,567.95,0,613.74v350.19C0,1009.13,24.18,1050.88,63.39,1073.37l893.29,512.53c27.87,15.99,62.16,15.9,89.96-.23l197.77-114.83c15.3-8.88,15.31-30.97.03-39.87Z"/><path class="cls-2" d="M736.78,816.26l903.11,526.17c85.34,49.72,85.01,173.14-.6,222.4l-598.58,344.44c-29.15,16.77-65.03,16.7-94.11-.19L36.11,1380.15C20.09,1370.84,0,1382.4,0,1400.93v216.95c0,42.54,22.8,81.82,59.74,102.91l883.41,504.55c36.07,20.6,80.3,20.75,116.5.39l856.95-481.8c39.91-22.44,64.61-64.67,64.61-110.45v-350.19c0-45.2-24.18-86.95-63.39-109.45l-893.29-512.53c-27.87-15.99-62.16-15.9-89.96.23l-197.77,114.83c-15.3,8.88-15.31,30.97-.03,39.87Z"/></svg>
